#!OML:ASF E:\EmotionMaleHayes\Project 1\Capture day 1\Session 1\Male1.ASF
:FULLY-SPECIFIED
:DEGREES
249
root -2.35165 16.7527 0.146306 424.235 80.0019 429.01
lowerback 6.98698 2.49156 -10.7562
upperback 4.35481 2.95187 -3.92529
thorax 0.34453 1.4375 1.72024
lowerneck -22.2311 0.594893 3.2439
upperneck 32.1727 0.207686 0.0234957
head 14.9237 0.721335 -0.450981
rclavicle -1.91827e-014 -1.55052e-014
rhumerus -30.7666 3.14616 -88.8548
rradius 27.0398
rwrist 6.68484
rhand -12.288 -27.2049
rfingers 7.12502
rthumb 13.7794 -56.7286
lclavicle -1.91827e-014 -1.55052e-014
lhumerus -25.0035 -10.4171 88.4341
lradius 30.181
lwrist -5.5536
lhand -17.146 -25.7372
lfingers 7.12502
lthumb 9.09451 4.04675
rfemur -4.0298 0.428405 7.56848
rtibia 65.7084
rfoot 1.71958 1.48785
rtoes 21.3985
lfemur -6.23379 0.847079 -32.7007
ltibia 23.5611
lfoot -15.4553 7.29208
ltoes -6.00077
250
root -2.23066 16.7658 0.130214 425.463 79.9785 430.324
lowerback 7.08951 2.41709 -10.7366
upperback 4.40673 2.8485 -3.95105
thorax 0.355956 1.38665 1.68795
lowerneck -22.0358 0.617012 3.42645
upperneck 32.0163 0.259456 -0.215249
head 14.8096 0.727081 -0.57264
rclavicle 1.20265e-014 1.86858e-014
rhumerus -31.3226 1.77984 -88.3042
rradius 26.5792
rwrist 7.54487
rhand -12.3073 -27.2524
rfingers 7.12502
rthumb 13.7608 -56.7774
lclavicle 1.20265e-014 1.86858e-014
lhumerus -24.5263 -12.2385 88.7623
lradius 31.2674
lwrist -4.57973
lhand -17.3139 -25.8431
lfingers 7.12502
lthumb 8.93245 3.94781
rfemur -5.64999 -0.161864 7.22173
rtibia 67.1135
rfoot 1.08714 1.66861
rtoes 22.9201
lfemur -5.18002 0.831069 -32.9137
ltibia 22.6093
lfoot -15.2825 7.15151
ltoes -6.34912
251
root -2.11667 16.7773 0.119156 427.64 80.1502 432.567
lowerback 7.07139 2.22927 -10.6987
upperback 4.60709 2.63076 -3.90996
thorax 0.60074 1.26535 1.73268
lowerneck -22.0266 0.714622 3.64651
upperneck 31.8496 0.396427 -0.467394
head 14.7358 0.768607 -0.68995
rclavicle 1.68967e-015 4.77083e-015
rhumerus -31.5489 0.442204 -87.7307
rradius 25.9929
rwrist 8.48949
rhand -12.4967 -26.9658
rfingers 7.12502
rthumb 13.5783 -56.503
lclavicle 1.68967e-015 4.77083e-015
lhumerus -23.7432 -13.5206 88.8932
lradius 32.1819
lwrist -4.24834
lhand -17.5421 -26.0004
lfingers 7.12502
lthumb 8.71219 3.7998
rfemur -7.15906 -0.871895 7.12566
rtibia 68.3211
rfoot 0.152771 1.4548
rtoes 24.1019
lfemur -4.18861 0.675214 -32.9655
ltibia 21.6826
lfoot -15.0975 7.00787
ltoes -6.88098
252
root -2.00339 16.7828 0.106685 430.146 79.9833 435.118
lowerback 7.42421 2.08351 -10.9439
upperback 4.50789 2.36587 -3.99454
thorax 0.327125 1.14655 1.78384
lowerneck -21.9604 0.759459 3.65545
upperneck 31.9729 0.435036 -0.363014
head 14.7786 0.806745 -0.640426
rclavicle -2.52457e-014 3.22031e-014
rhumerus -32.1706 -0.570664 -87.3374
rradius 25.5315
rwrist 9.00264
rhand -12.7763 -26.9957
rfingers 7.12502
rthumb 13.3088 -56.5508
lclavicle -2.52457e-014 3.22031e-014
lhumerus -23.3747 -14.5086 88.9388
lradius 33.0096
lwrist -4.09755
lhand -17.6906 -26.3688
lfingers 7.12502
lthumb 8.56891 3.43732
rfemur -8.65787 -1.54388 6.64763
rtibia 69.3288
rfoot -0.933333 1.30594
rtoes 24.2616
lfemur -3.25712 0.595026 -33.379
ltibia 20.8214
lfoot -15.1003 6.89209
ltoes -7.6761
253
root -1.88809 16.7856 0.0951746 430.775 79.6568 435.717
lowerback 7.46177 2.02786 -11.3564
upperback 4.47674 2.26014 -3.9928
thorax 0.276501 1.09047 2.01711
lowerneck -21.9131 0.770962 3.51894
upperneck 32.0419 0.480516 -0.271777
head 14.7999 0.824989 -0.570314
rclavicle 1.2424e-014 -3.4191e-014
rhumerus -32.7646 -1.18191 -86.8834
rradius 25.3186
rwrist 9.07806
rhand -13.143 -27.0744
rfingers 7.12502
rthumb 12.9553 -56.6522
lclavicle 1.2424e-014 -3.4191e-014
lhumerus -22.7082 -15.4553 89.0547
lradius 33.5535
lwrist -3.80135
lhand -17.8315 -26.6696
lfingers 7.12502
lthumb 8.43292 3.14208
rfemur -10.3624 -1.8254 6.20957
rtibia 70.2359
rfoot -2.01503 1.13078
rtoes 23.5993
lfemur -2.50023 0.739587 -33.8224
ltibia 20.1401
lfoot -15.1297 6.82769
ltoes -8.4804
254
root -1.76215 16.7954 0.088514 434.293 79.8323 439.331
lowerback 7.51871 1.72583 -11.5018
upperback 4.57064 1.85179 -3.8371
thorax 0.385379 0.87451 2.2921
lowerneck -21.8208 0.854226 3.52827
upperneck 32.032 0.638682 -0.363972
head 14.7787 0.879491 -0.580549
rclavicle -4.96962e-015 2.62396e-014
rhumerus -33.3825 -1.78737 -86.337
rradius 25.172
rwrist 9.19299
rhand -13.4922 -26.9499
rfingers 7.12502
rthumb 12.6187 -56.5487
lclavicle -4.96962e-015 2.62396e-014
lhumerus -21.8044 -16.2077 89.1445
lradius 33.8714
lwrist -3.67696
lhand -17.9467 -26.7644
lfingers 7.12502
lthumb 8.32176 3.05167
rfemur -11.5648 -2.62926 6.23327
rtibia 70.8263
rfoot -3.33407 0.907713
rtoes 22.9372
lfemur -1.56826 0.401624 -33.871
ltibia 19.5179
lfoot -15.113 6.62513
ltoes -9.38145
255
root -1.66217 16.7936 0.0791328 432.239 79.6842 437.077
lowerback 7.37606 1.76335 -11.7085
upperback 4.59363 1.90858 -3.71784
thorax 0.474594 0.890102 2.52927
lowerneck -21.8825 0.964626 3.564
upperneck 32.0168 0.807117 -0.438748
head 14.7903 0.94194 -0.586154
rclavicle -2.21645e-014 -2.0276e-014
rhumerus -33.7864 -2.29698 -85.864
rradius 25.0371
rwrist 9.26619
rhand -13.574 -27.1976
rfingers 7.12502
rthumb 12.5398 -56.8013
lclavicle -2.21645e-014 -2.0276e-014
lhumerus -20.9319 -16.8308 89.1321
lradius 34.5304
lwrist -3.60243
lhand -17.939 -26.8981
lfingers 7.12502
lthumb 8.32922 2.91768
rfemur -13.651 -2.57367 6.25558
rtibia 71.3694
rfoot -4.51004 0.926473
rtoes 21.7282
lfemur -1.11159 0.59743 -34.0002
ltibia 18.9267
lfoot -15.2219 6.89208
ltoes -10.0171
